<?xml version="1.0" encoding="UTF-8" standalone="no"?>
<!-- Created with Inkscape (http://www.inkscape.org/) -->

<svg
   width="50.329254mm"
   height="44.452171mm"
   viewBox="0 0 50.329254 44.452171"
   version="1.1"
   id="svg1"
   xml:space="preserve"
   xmlns:xlink="http://www.w3.org/1999/xlink"
   xmlns="http://www.w3.org/2000/svg"
   xmlns:svg="http://www.w3.org/2000/svg"><defs
     id="defs1"><linearGradient
       id="linearGradient82"><stop
         style="stop-color:#ff5565;stop-opacity:1;"
         offset="0"
         id="stop82" /><stop
         style="stop-color:#ff9655;stop-opacity:1;"
         offset="1"
         id="stop83" /></linearGradient><linearGradient
       xlink:href="#linearGradient82"
       id="linearGradient4"
       gradientUnits="userSpaceOnUse"
       x1="117.29914"
       y1="160.59914"
       x2="169.79506"
       y2="130.2906" /></defs><g
     id="layer1"
     transform="translate(-127.94079,-110.85773)"><g
       id="g22"><g
         id="g4"
         style="display:inline"
         transform="translate(9.5639537,-1.8313952)"><path
           d="m 156.58508,113.20393 c -4.91037,0.25321 -7.62934,3.51435 -10.38283,5.88801 -2.35533,2.03042 -4.35342,3.1591 -4.94854,3.50159 -0.15365,-0.2888 -0.30953,-0.55601 -0.56017,-1.21078 -0.35001,-0.91441 -0.67437,-2.06906 -1.65003,-3.44216 -0.97565,-1.37311 -3.534,-2.8927 -5.80584,-2.56264 l -0.14883,0.0217 -0.14676,0.0326 c -2.67395,0.59669 -4.81215,2.68465 -5.72265,4.73098 -0.91051,2.04633 -1.04621,4.00834 -1.07952,5.76761 -0.0265,1.40102 0.0464,2.51911 0.0879,3.53467 -0.7325,-0.0266 -1.61123,-0.038 -2.75539,0.27543 -1.33342,0.36526 -3.0368,1.48059 -3.8778,3.08147 -1.01885,1.93944 -0.8418,4.52189 -0.0579,6.11797 0.78393,1.59608 1.80809,2.56322 2.70061,3.40858 1.28806,1.21997 2.18407,2.33791 2.53732,2.6417 -0.0707,0.17509 -0.16657,0.43861 -0.4377,0.99942 -0.31,0.6412 -0.74333,1.49359 -0.99374,2.70991 -0.25042,1.21632 -0.19014,2.88438 0.48679,4.3372 0.66929,1.43638 2.05782,2.65475 3.5233,3.24115 l 0.44907,0.17932 0.47904,0.0677 c 4.11743,0.5796 5.88464,-1.06412 10.57041,-2.95331 4.68577,-1.88919 13.25123,-3.00372 19.8882,-3.81423 1.32192,-0.14874 2.67306,-0.22878 4.28862,-0.80719 0.80779,-0.2892 1.74722,-0.73637 2.60294,-1.63401 0.85572,-0.89763 1.45288,-2.28608 1.53686,-3.5295 0.11084,-1.64093 -0.56401,-3.36598 -1.4025,-4.39456 -0.62863,-0.77116 -1.22821,-1.21414 -1.76216,-1.57148 0.24661,-0.24667 0.33933,-0.36702 0.63923,-0.65733 0.79345,-0.76807 1.7361,-1.62683 2.57452,-3.0024 0.83843,-1.37557 1.47271,-3.93013 0.44907,-6.05751 -0.79784,-1.6581 -2.49134,-3.02426 -4.04265,-3.46594 -0.30254,-0.0861 -0.5829,-0.13246 -0.86144,-0.17673 0.49275,-1.11148 1.00681,-2.3546 1.13275,-4.03025 0.14193,-1.88863 -0.82374,-4.68485 -2.86236,-6.05027 l -0.0713,-0.0481 -0.0734,-0.0444 c -1.31584,-0.8018 -2.90012,-1.15651 -4.30309,-1.08417 z"
           style="baseline-shift:baseline;display:inline;overflow:visible;vector-effect:none;fill:#000000;stroke:#ffffff;stroke-linecap:square;enable-background:accumulate;stop-color:#000000;stop-opacity:1"
           id="path29" /><path
           id="path4"
           style="display:inline;fill:url(#linearGradient4);stroke-width:4;stroke-linecap:square"
           d="m 156.79095,117.19853 c -4.89824,0.25259 -11.04449,9.64748 -15.98766,9.68571 -4.52052,-0.27272 -3.40363,-8.06894 -6.99027,-7.54785 -5.99291,1.33732 -2.48077,11.9217 -3.96978,13.58521 -1.36997,1.53053 -5.43253,-0.66601 -6.7076,1.76114 -1.86817,3.55617 4.90849,6.02938 5.69681,9.34103 0.63306,2.65946 -2.55931,4.78592 -1.37666,7.3241 0.2357,0.50584 0.67102,0.93142 1.38337,1.21646 6.30801,0.88795 9.45855,-3.36269 11.8861,-8.73487 1.61065,-3.78124 8.22244,-18.92421 11.70988,-16.89871 2.47548,1.43768 -1.28347,4.8099 0.29972,6.2544 1.22957,1.12185 4.26137,-1.81865 5.425,-0.10645 0.89239,1.31314 -3.09239,3.60396 -3.01119,6.67349 0.0249,0.94167 1.58497,1.7074 1.69085,2.56057 0.3692,2.97505 -6.70276,2.22446 -6.46937,6.03891 4.28287,-3.84931 12.57479,-1.38901 12.80749,-4.83433 0.17861,-2.64438 -3.71806,-2.88969 -4.13567,-4.8395 -0.62786,-2.93152 6.47149,-5.82398 5.02037,-8.83977 -1.50182,-3.12115 -5.67109,-0.11317 -6.56446,-1.29553 -1.52337,-2.01618 4.90809,-8.428 1.30896,-10.83861 -0.64166,-0.39099 -1.31615,-0.54148 -2.01589,-0.5054 z m -8.89248,19.05207 c -1.93303,-3e-5 -3.50007,1.56701 -3.50005,3.50004 -3e-5,1.93304 1.56701,3.50008 3.50005,3.50005 1.93283,-2.7e-4 3.49955,-1.56722 3.49952,-3.50005 2e-5,-1.93282 -1.5667,-3.49977 -3.49952,-3.50004 z m -12.44679,1.5105 c 1.93304,-3e-5 3.50008,1.56701 3.50005,3.50005 2e-5,1.93303 -1.56702,3.50007 -3.50005,3.50004 -1.93303,2e-5 -3.50006,-1.56701 -3.50004,-3.50004 -3e-5,-1.93303 1.56701,-3.50007 3.50004,-3.50005 z" /></g></g></g></svg>
